<svg xmlns="http://www.w3.org/2000/svg" viewBox="0 0 300 300" role="img" aria-label="The Woodshed logo">
  <path d="M 232.84,29.30 L 215.77,47.46 L 201.93,59.03 L 185.67,69.36 L 167.50,77.56 L 146.19,83.72 L 122.97,87.23 L 62.99,88.18 L 59.18,89.79 L 56.84,93.75 L 56.76,180.98 L 58.08,185.67 L 62.77,188.23 L 105.83,188.67 L 134.25,192.11 L 156.52,198.05 L 174.24,206.25 L 189.40,218.55 L 198.12,234.59 L 197.83,251.07 L 188.82,265.58 L 201.20,265.28 L 213.94,260.96 L 225.88,253.20 L 236.21,243.09 L 254.59,214.53 L 262.72,193.43 L 267.33,174.54 L 270.70,133.81 L 265.43,94.56 L 254.22,62.92 L 243.90,44.38 Z" fill="#E84E10" fill-rule="evenodd"/>
  <path d="M 84.59,195.85 L 84.45,268.95 L 84.59,276.78 L 85.91,281.10 L 88.92,284.11 L 93.75,285.57 L 127.44,285.57 L 131.84,284.47 L 133.89,283.08 L 135.72,280.66 L 137.04,274.88 L 137.04,200.32 L 112.21,196.80 Z M 85.55,58.59 L 84.74,62.84 L 84.81,80.86 L 113.16,80.42 L 126.34,79.61 L 136.96,78.44 L 137.11,62.04 L 136.74,59.77 L 136.01,57.86 L 134.69,55.88 L 133.23,54.64 L 130.81,53.47 L 128.03,52.88 L 93.31,52.95 L 90.53,53.61 L 88.33,54.86 L 86.65,56.62 Z" fill="#1A150F" fill-rule="evenodd"/>
</svg>
